# xmcd
#
# Track frame offsets:
#  150
#  43140
#  78655
#  116491
#  152216
#  200052
#  205353
#  231692
#  253529
#  262907
#
# Disc length: 3762 seconds
#
# Revision: 0
# Processed by: cddbd v1.5.2PL0 Copyright (c) Steve Scherf et al.
# Submitted via: Collectorz.com_Music_Collector 6.11
#
DISCID=930eb00a
DTITLE=Eric Clapton - Happy, Happy Birthday Eric!
DYEAR=1998
DGENRE=Blues
TTITLE0=It's Eric Clapton's Birthday
TTITLE1=Who Do You Love?
TTITLE2=Hard Times
TTITLE3=Stormy Monday
TTITLE4=Instrumental Jam
TTITLE5=Adios Mi Corason
TTITLE6=The Water Is Wide
TTITLE7=Idiot Wind
TTITLE8=Big River
TTITLE9=Steppin' Out
EXTD=
EXTT0=
EXTT1=
EXTT2=
EXTT3=
EXTT4=
EXTT5=
EXTT6=
EXTT7=
EXTT8=
EXTT9=
PLAYORDER=
